<?xml version="1.0" encoding="utf-8"?>
<!-- Generator: Adobe Illustrator 16.0.0, SVG Export Plug-In . SVG Version: 6.00 Build 0)  -->
<!DOCTYPE svg PUBLIC "-//W3C//DTD SVG 1.1//EN" "http://www.w3.org/Graphics/SVG/1.1/DTD/svg11.dtd">
<svg version="1.1" id="Layer_1" xmlns="http://www.w3.org/2000/svg" xmlns:xlink="http://www.w3.org/1999/xlink" x="0px" y="0px"
	 width="180px" height="40px" viewBox="0 0 180 40" enable-background="new 0 0 180 40" xml:space="preserve">
<g>
	<path fill="#FFFFFF" d="M154.811,28.684v-9.065c0-4.278-2.068-6.12-5.212-6.12c-1.869,0-3.259,0.878-4.107,2.125V13.81h-2.126
		v14.874h2.126v-8.696c0-3.259,1.614-4.647,3.683-4.647c2.379,0,3.513,1.445,3.513,4.647v8.696H154.811L154.811,28.684z"/>
	<g>
		<path fill="#F16722" d="M14.305,25.293c3.257,0,5.897-2.642,5.897-5.897c0-3.257-2.64-5.897-5.897-5.897
			c-3.256,0-5.897,2.641-5.897,5.897C8.408,22.651,11.049,25.293,14.305,25.293"/>
		<path fill="#0DA9A0" d="M23.815,28.904H4.797V9.885h19.019L23.815,28.904L23.815,28.904z M14.305,5.848
			c-7.481,0-13.546,6.065-13.546,13.547c0,7.481,6.065,13.547,13.546,13.547s13.547-6.065,13.547-13.547
			C27.852,11.913,21.787,5.848,14.305,5.848"/>
		<path fill="#9FC854" d="M14.305,13.498c3.258,0,5.897,2.641,5.897,5.897c0,3.258-2.64,5.897-5.897,5.897s-5.897-2.64-5.897-5.897
			S11.048,13.498,14.305,13.498 M4.731,28.97h19.146V9.822H4.731V28.97z"/>
	</g>
	<polygon fill="#FFFFFF" points="123.45,10.799 123.45,6.957 119.541,8.912 119.541,11.875 	"/>
	<rect x="119.541" y="13.81" fill="#FFFFFF" width="3.909" height="14.874"/>
	<path fill="#FFFFFF" d="M137.105,14.546c-0.51-0.539-1.474-1.048-2.748-1.048c-1.387,0-2.38,0.595-3.06,1.303V13.81h-3.909v14.874
		h3.909v-8.046c0-2.577,0.992-3.229,2.522-3.229c0.878,0,1.643,0.397,2.267,0.964L137.105,14.546z"/>
	<path fill="#FFFFFF" d="M139.966,27.184c0-0.992-0.853-1.87-1.815-1.87c-0.989,0-1.811,0.878-1.811,1.87
		c0,0.991,0.821,1.812,1.811,1.812C139.115,28.995,139.966,28.173,139.966,27.184"/>
	<path fill="#FFFFFF" d="M115.744,24.123c-0.963,0.821-1.501,1.132-2.21,1.132c-0.936,0-1.444-0.367-1.444-1.784v-5.977h3.569V13.81
		h-3.569V8.031l-3.91,1.955v3.824h-2.493v3.684h2.493v7.023c0,2.608,1.558,4.478,3.967,4.478c1.218,0,2.378-0.396,3.03-0.906
		L115.744,24.123z"/>
	<path fill="#FFFFFF" d="M103.361,28.684v-8.386c0-4.191-1.699-6.799-5.497-6.799c-1.557,0-2.803,0.595-3.483,1.303V13.81h-3.91
		v14.874h3.91v-8.131c0-2.577,0.934-3.37,2.549-3.37s2.522,0.793,2.522,3.455v8.046H103.361z"/>
	<path fill="#FFFFFF" d="M80.782,13.499c-2.41,0-3.854,0.51-5.581,1.501l1.501,2.72c1.36-0.735,2.294-0.991,4.08-0.991
		c1.416,0,2.125,0.85,2.125,1.897v0.736c-0.624-0.312-1.502-0.596-2.862-0.596c-3.372,0-6.034,1.646-6.034,4.93
		c0,3.598,2.776,5.299,5.552,5.299c1.388,0,2.635-0.565,3.344-1.303v0.991h3.91v-9.972C86.816,15.369,84.38,13.499,80.782,13.499z
		 M82.907,24.319c-0.425,0.709-1.446,1.361-2.719,1.361c-1.673,0-2.268-0.934-2.268-1.984c0-1.189,0.794-1.869,2.268-1.869
		c1.387,0,2.039,0.199,2.719,0.624V24.319z"/>
	<polygon fill="#FFFFFF" points="71.064,28.684 71.064,8.031 67.155,9.986 67.155,28.684 	"/>
	<path fill="#FFFFFF" d="M57.325,13.499c-2.409,0-3.854,0.51-5.581,1.501l1.501,2.72c1.359-0.735,2.294-0.991,4.08-0.991
		c1.417,0,2.125,0.85,2.125,1.897v0.736c-0.622-0.312-1.502-0.596-2.861-0.596c-3.371,0-6.034,1.646-6.034,4.93
		c0,3.598,2.777,5.299,5.552,5.299c1.389,0,2.636-0.565,3.344-1.303v0.991h3.91v-9.972C63.359,15.369,60.923,13.499,57.325,13.499z
		 M59.449,24.319c-0.425,0.709-1.445,1.361-2.719,1.361c-1.672,0-2.267-0.934-2.267-1.984c0-1.189,0.793-1.869,2.267-1.869
		c1.388,0,2.039,0.199,2.719,0.624V24.319z"/>
	<path fill="#FFFFFF" d="M42.622,13.499c-1.416,0-2.408,0.595-3.144,1.247V13.81h-3.91v20.341l3.91-1.953v-4.363
		c0.708,0.65,1.841,1.161,3.144,1.161c3.684,0,5.78-3.117,5.78-7.565C48.401,15.878,45.795,13.499,42.622,13.499z M42.112,25.312
		c-1.133,0-2.039-0.453-2.634-1.275v-5.609c0.567-0.737,1.19-1.247,2.408-1.247c1.529,0,2.549,1.274,2.549,4.333
		C44.436,24.01,43.614,25.312,42.112,25.312z"/>
	<path fill="#FFFFFF" d="M178.877,15.595V13.81h-3.683V8.031l-2.125,1.188v4.59h-1.842v1.785h1.842v10.029
		c0,2.465,0.992,3.371,2.833,3.371c1.134,0,1.927-0.17,2.749-0.51l0.142-1.842c-0.679,0.283-1.247,0.424-2.097,0.424
		c-1.134,0-1.502-0.451-1.502-1.782v-9.69H178.877z"/>
	<path fill="#FFFFFF" d="M169.613,20.807c0-4.249-2.097-7.308-5.979-7.308c-3.541,0-6.146,2.948-6.146,7.678
		c0,5.835,3.313,7.818,6.033,7.818c2.239,0,3.54-0.596,5.326-1.728l-0.992-1.53c-1.359,0.906-2.379,1.417-4.106,1.417
		c-2.438,0-3.937-2.011-4.138-5.186h9.917C169.584,21.63,169.613,21.318,169.613,20.807z M159.611,20.242
		c0.256-3.315,1.785-4.902,3.996-4.902c2.605,0,3.853,2.011,4.023,4.902H159.611z"/>
</g>
</svg>
