<?xml version="1.0" encoding="utf-8"?>
<!-- Generator: Adobe Illustrator 16.0.0, SVG Export Plug-In . SVG Version: 6.00 Build 0)  -->
<!DOCTYPE svg PUBLIC "-//W3C//DTD SVG 1.1//EN" "http://www.w3.org/Graphics/SVG/1.1/DTD/svg11.dtd">
<svg version="1.1" id="Layer_1" xmlns="http://www.w3.org/2000/svg" xmlns:xlink="http://www.w3.org/1999/xlink" x="0px" y="0px"
	 width="1044px" height="291px" viewBox="0 0 1044 291" enable-background="new 0 0 1044 291" xml:space="preserve">
<path fill="#E1EBEF" d="M29.5,107h63c7.452,0,13.5,8.064,13.5,18s-6.048,18-13.5,18h-63c-7.452,0-13.5-8.064-13.5-18
	S22.048,107,29.5,107"/>
<text transform="matrix(1 0 0 1 34.9185 129.5)" fill="#435152" font-family="Proxima Nova" font-weight="bold" font-size="14">Request</text>
<g>
	<path fill="#E1EBEF" d="M912.125,104.5h71.75c8.487,0,15.375,9.186,15.375,20.5s-6.888,20.5-15.375,20.5h-71.75
		c-8.487,0-15.375-9.186-15.375-20.5S903.638,104.5,912.125,104.5"/>
	<text transform="matrix(1 0 0 1 918.041 128.9995)" fill="#435152" font-family="Proxima Nova" font-weight="bold" font-size="14">Response</text>
</g>
<path fill="#E1EBEF" d="M349,107h81v36h-81V107z"/>
<text transform="matrix(1 0 0 1 357.7695 129.5)" fill="#435152" font-family="Proxima Nova" font-weight="bold" font-size="14">Controller</text>
<path fill="#E1EBEF" d="M124,107h90l-18,36h-54L124,107z"/>
<text transform="matrix(1 0 0 1 144.8994 121.7891)" fill="#435152" font-family="Proxima Nova" font-weight="bold" font-size="14">request</text>
<text transform="matrix(1 0 0 1 151.2485 135.7891)" fill="#435152" font-family="Proxima Nova" font-weight="bold" font-size="14">event</text>
<path fill="#E1EBEF" d="M232,107h90l-18,36h-54L232,107z"/>
<text transform="matrix(1 0 0 1 246.5854 121.7891)" fill="#435152" font-family="Proxima Nova" font-weight="bold" font-size="14">controller</text>
<text transform="matrix(1 0 0 1 259.2485 135.7891)" fill="#435152" font-family="Proxima Nova" font-weight="bold" font-size="14">event</text>
<g>
	<path fill="#E1EBEF" d="M653.25,104h107.5l-21.5,43h-64.5L653.25,104z"/>
	<text transform="matrix(1 0 0 1 692.877 120.7734)" fill="#435152" font-family="Proxima Nova" font-weight="bold" font-size="14">view</text>
	<text transform="matrix(1 0 0 1 689.748 134.7734)" fill="#435152" font-family="Proxima Nova" font-weight="bold" font-size="14">event</text>
</g>
<g>
	<path fill="#E1EBEF" d="M773.5,104h105l-21,42h-63L773.5,104z"/>
	<text transform="matrix(1 0 0 1 796.251 120.6499)" fill="#435152" font-family="Proxima Nova" font-weight="bold" font-size="14">response</text>
	<text transform="matrix(1 0 0 1 807.5977 134.6499)" fill="#435152" font-family="Proxima Nova" font-weight="bold" font-size="14">event</text>
</g>
<path fill="#E1EBEF" d="M894.25,178.5h107.5l-21.5,43h-64.5L894.25,178.5z"/>
<text transform="matrix(1 0 0 1 917.8359 196.6953)" fill="#435152" font-family="Proxima Nova" font-weight="bold" font-size="14">terminate</text>
<text transform="matrix(1 0 0 1 930.6738 210.6953)" fill="#435152" font-family="Proxima Nova" font-weight="bold" font-size="14">event</text>
<path fill="#E1EBEF" d="M522.55,88.481L589.5,125l-66.95,36.518L455.6,125L522.55,88.481z"/>
<text transform="matrix(1 0 0 1 481.3691 128.5)" fill="#435152" font-family="Proxima Nova" font-weight="bold" font-size="14">is Response?</text>
<line fill="none" stroke="#E1EBEF" stroke-linecap="round" stroke-linejoin="round" stroke-miterlimit="10" x1="106.5" y1="125.5" x2="123.6" y2="125.5"/>
<path fill="#E1EBEF" d="M131.6,125.5l-8-3v6L131.6,125.5z"/>
<path fill="none" stroke="#E1EBEF" stroke-miterlimit="10" d="M131.6,125.5l-8-3v6L131.6,125.5z"/>
<line fill="none" stroke="#E1EBEF" stroke-linecap="round" stroke-linejoin="round" stroke-miterlimit="10" x1="205.5" y1="125.5" x2="231.6" y2="125.5"/>
<path fill="#E1EBEF" d="M239.6,125.5l-8-3v6L239.6,125.5z"/>
<path fill="none" stroke="#E1EBEF" stroke-miterlimit="10" d="M239.6,125.5l-8-3v6L239.6,125.5z"/>
<g>
	
		<line fill="none" stroke="#E1EBEF" stroke-linecap="round" stroke-linejoin="round" stroke-miterlimit="10" x1="430.5" y1="125.5" x2="447.6" y2="125.5"/>
	<path fill="#E1EBEF" d="M455.6,125.5l-8-3v6L455.6,125.5z"/>
	<path fill="none" stroke="#E1EBEF" stroke-miterlimit="10" d="M455.6,125.5l-8-3v6L455.6,125.5z"/>
</g>
<g>
	
		<line fill="none" stroke="#E1EBEF" stroke-linecap="round" stroke-linejoin="round" stroke-miterlimit="10" x1="583.772" y1="125.5" x2="600.872" y2="125.5"/>
	<path fill="#E1EBEF" d="M608.872,125.5l-8-3v6L608.872,125.5z"/>
	<path fill="none" stroke="#E1EBEF" stroke-miterlimit="10" d="M608.872,125.5l-8-3v6L608.872,125.5z"/>
</g>
<g>
	
		<line fill="none" stroke="#E1EBEF" stroke-linecap="round" stroke-linejoin="round" stroke-miterlimit="10" x1="634.872" y1="125.5" x2="657.8" y2="125.5"/>
	<path fill="#E1EBEF" d="M665.8,125.5l-8-3v6L665.8,125.5z"/>
	<path fill="none" stroke="#E1EBEF" stroke-miterlimit="10" d="M665.8,125.5l-8-3v6L665.8,125.5z"/>
</g>
<g>
	
		<line fill="none" stroke="#E1EBEF" stroke-linecap="round" stroke-linejoin="round" stroke-miterlimit="10" x1="750.25" y1="125.5" x2="778.04" y2="125.5"/>
	<path fill="#E1EBEF" d="M786.04,125.5l-8-3v6L786.04,125.5z"/>
	<path fill="none" stroke="#E1EBEF" stroke-miterlimit="10" d="M786.04,125.5l-8-3v6L786.04,125.5z"/>
</g>
<g>
	
		<line fill="none" stroke="#E1EBEF" stroke-linecap="round" stroke-linejoin="round" stroke-miterlimit="10" x1="861" y1="125.5" x2="888.75" y2="125.5"/>
	<path fill="#E1EBEF" d="M896.75,125.5l-8-3v6L896.75,125.5z"/>
	<path fill="none" stroke="#E1EBEF" stroke-miterlimit="10" d="M896.75,125.5l-8-3v6L896.75,125.5z"/>
</g>
<g>
	
		<line fill="none" stroke="#E1EBEF" stroke-linecap="round" stroke-linejoin="round" stroke-miterlimit="10" x1="589.5" y1="125" x2="692.34" y2="43.196"/>
	<path fill="#E1EBEF" d="M698.74,38.396l-8.201,2.4l3.6,4.8L698.74,38.396z"/>
</g>
<g>
	
		<line fill="none" stroke="#E1EBEF" stroke-linecap="round" stroke-linejoin="round" stroke-miterlimit="10" x1="727" y1="38.396" x2="819.979" y2="98.231"/>
	<path fill="#E1EBEF" d="M826,103.5l-4.045-7.526l-3.951,4.516L826,103.5z"/>
	<path fill="none" stroke="#E1EBEF" stroke-miterlimit="10" d="M826,103.5l-4.045-7.526l-3.951,4.516L826,103.5z"/>
</g>
<line fill="none" stroke="#E1EBEF" stroke-linecap="round" stroke-linejoin="round" stroke-miterlimit="10" x1="313.5" y1="125.5" x2="339.6" y2="125.5"/>
<path fill="#E1EBEF" d="M347.6,125.5l-8-3v6L347.6,125.5z"/>
<path fill="none" stroke="#E1EBEF" stroke-miterlimit="10" d="M347.6,125.5l-8-3v6L347.6,125.5z"/>
<g>
	<path fill="#DBE8EC" d="M698,26.396h29v24h-29V26.396z"/>
	<text transform="matrix(1 0 0 1 700.7754 42.8965)" fill="#435152" font-family="Proxima Nova" font-weight="bold" font-size="14">Yes</text>
</g>
<g>
	<path fill="#DBE8EC" d="M608.872,113.5h26v24h-26V113.5z"/>
	<text transform="matrix(1 0 0 1 612.4121 130.0054)" fill="#435152" font-family="Proxima Nova" font-weight="bold" font-size="14">No</text>
</g>
<line fill="none" stroke="#E1EBEF" stroke-linecap="round" stroke-linejoin="round" stroke-miterlimit="10" stroke-dasharray="4,4" x1="948.5" y1="143" x2="948.5" y2="169.1"/>
<path fill="#E1EBEF" d="M948.5,177.1l3-8h-6L948.5,177.1z"/>
<path fill="none" stroke="#E1EBEF" stroke-miterlimit="10" d="M948.5,177.1l3-8h-6L948.5,177.1z"/>
</svg>
